<?xml version="1.0" encoding="utf-8"?>
<svg viewBox="-53.645 -262.11 720 800" width="720" height="800" xmlns="http://www.w3.org/2000/svg">
  <path d="M 26.355 537.89 C 4.355 537.89 -14.478 530.056 -30.145 514.39 C -45.812 498.723 -53.645 479.89 -53.645 457.89 L -53.645 -102.11 C -53.645 -124.11 -45.812 -142.944 -30.145 -158.61 C -14.478 -174.277 4.355 -182.11 26.355 -182.11 L 66.355 -182.11 L 66.355 -262.11 L 146.355 -262.11 L 146.355 -182.11 L 466.355 -182.11 L 466.355 -262.11 L 546.355 -262.11 L 546.355 -182.11 L 586.355 -182.11 C 608.355 -182.11 627.188 -174.277 642.855 -158.61 C 658.522 -142.944 666.355 -124.11 666.355 -102.11 L 666.355 457.89 C 666.355 479.89 658.522 498.723 642.855 514.39 C 627.188 530.056 608.355 537.89 586.355 537.89 L 26.355 537.89 Z M 26.355 457.89 L 586.355 457.89 L 586.355 57.89 L 26.355 57.89 L 26.355 457.89 Z M 26.355 -22.11 L 586.355 -22.11 L 586.355 -102.11 L 26.355 -102.11 L 26.355 -22.11 Z M 26.355 -22.11 L 26.355 -102.11 L 26.355 -22.11 Z M 306.355 217.89 C 295.022 217.89 285.522 214.056 277.855 206.39 C 270.188 198.723 266.355 189.223 266.355 177.89 C 266.355 166.556 270.188 157.056 277.855 149.39 C 285.522 141.723 295.022 137.89 306.355 137.89 C 317.688 137.89 327.188 141.723 334.855 149.39 C 342.522 157.056 346.355 166.556 346.355 177.89 C 346.355 189.223 342.522 198.723 334.855 206.39 C 327.188 214.056 317.688 217.89 306.355 217.89 Z M 146.355 217.89 C 135.022 217.89 125.522 214.056 117.855 206.39 C 110.188 198.723 106.355 189.223 106.355 177.89 C 106.355 166.556 110.188 157.056 117.855 149.39 C 125.522 141.723 135.022 137.89 146.355 137.89 C 157.688 137.89 167.188 141.723 174.855 149.39 C 182.522 157.056 186.355 166.556 186.355 177.89 C 186.355 189.223 182.522 198.723 174.855 206.39 C 167.188 214.056 157.688 217.89 146.355 217.89 Z M 466.355 217.89 C 455.022 217.89 445.522 214.056 437.855 206.39 C 430.188 198.723 426.355 189.223 426.355 177.89 C 426.355 166.556 430.188 157.056 437.855 149.39 C 445.522 141.723 455.022 137.89 466.355 137.89 C 477.688 137.89 487.188 141.723 494.855 149.39 C 502.522 157.056 506.355 166.556 506.355 177.89 C 506.355 189.223 502.522 198.723 494.855 206.39 C 487.188 214.056 477.688 217.89 466.355 217.89 Z M 306.355 377.89 C 295.022 377.89 285.522 374.056 277.855 366.39 C 270.188 358.723 266.355 349.223 266.355 337.89 C 266.355 326.556 270.188 317.056 277.855 309.39 C 285.522 301.723 295.022 297.89 306.355 297.89 C 317.688 297.89 327.188 301.723 334.855 309.39 C 342.522 317.056 346.355 326.556 346.355 337.89 C 346.355 349.223 342.522 358.723 334.855 366.39 C 327.188 374.056 317.688 377.89 306.355 377.89 Z M 146.355 377.89 C 135.022 377.89 125.522 374.056 117.855 366.39 C 110.188 358.723 106.355 349.223 106.355 337.89 C 106.355 326.556 110.188 317.056 117.855 309.39 C 125.522 301.723 135.022 297.89 146.355 297.89 C 157.688 297.89 167.188 301.723 174.855 309.39 C 182.522 317.056 186.355 326.556 186.355 337.89 C 186.355 349.223 182.522 358.723 174.855 366.39 C 167.188 374.056 157.688 377.89 146.355 377.89 Z M 466.355 377.89 C 455.022 377.89 445.522 374.056 437.855 366.39 C 430.188 358.723 426.355 349.223 426.355 337.89 C 426.355 326.556 430.188 317.056 437.855 309.39 C 445.522 301.723 455.022 297.89 466.355 297.89 C 477.688 297.89 487.188 301.723 494.855 309.39 C 502.522 317.056 506.355 326.556 506.355 337.89 C 506.355 349.223 502.522 358.723 494.855 366.39 C 487.188 374.056 477.688 377.89 466.355 377.89 Z" style="fill: rgb(142, 142, 142);" transform="matrix(1, 0, 0, 1, 1.4210854715202004e-14, 0)"/>
</svg>