<?xml version="1.0" encoding="utf-8"?>
<svg viewBox="-177.578 -228.537 800 800" width="800" height="800" xmlns="http://www.w3.org/2000/svg">
  <path d="M 182.422 371.463 L 262.422 371.463 L 262.422 131.463 L 182.422 131.463 L 182.422 371.463 Z M 222.422 51.463 C 233.755 51.463 243.255 47.629 250.922 39.963 C 258.589 32.296 262.422 22.796 262.422 11.463 C 262.422 0.129 258.589 -9.371 250.922 -17.037 C 243.255 -24.704 233.755 -28.537 222.422 -28.537 C 211.089 -28.537 201.589 -24.704 193.922 -17.037 C 186.255 -9.371 182.422 0.129 182.422 11.463 C 182.422 22.796 186.255 32.296 193.922 39.963 C 201.589 47.629 211.089 51.463 222.422 51.463 Z M 222.422 571.463 C 167.089 571.463 115.089 560.963 66.422 539.963 C 17.755 518.963 -24.578 490.463 -60.578 454.463 C -96.578 418.463 -125.078 376.129 -146.078 327.463 C -167.078 278.796 -177.578 226.796 -177.578 171.463 C -177.578 116.129 -167.078 64.129 -146.078 15.463 C -125.078 -33.204 -96.578 -75.537 -60.578 -111.537 C -24.578 -147.537 17.755 -176.037 66.422 -197.037 C 115.089 -218.037 167.089 -228.537 222.422 -228.537 C 277.755 -228.537 329.755 -218.037 378.422 -197.037 C 427.089 -176.037 469.422 -147.537 505.422 -111.537 C 541.422 -75.537 569.922 -33.204 590.922 15.463 C 611.922 64.129 622.422 116.129 622.422 171.463 C 622.422 226.796 611.922 278.796 590.922 327.463 C 569.922 376.129 541.422 418.463 505.422 454.463 C 469.422 490.463 427.089 518.963 378.422 539.963 C 329.755 560.963 277.755 571.463 222.422 571.463 Z M 222.422 491.463 C 311.755 491.463 387.422 460.463 449.422 398.463 C 511.422 336.463 542.422 260.796 542.422 171.463 C 542.422 82.129 511.422 6.463 449.422 -55.537 C 387.422 -117.537 311.755 -148.537 222.422 -148.537 C 133.089 -148.537 57.422 -117.537 -4.578 -55.537 C -66.578 6.463 -97.578 82.129 -97.578 171.463 C -97.578 260.796 -66.578 336.463 -4.578 398.463 C 57.422 460.463 133.089 491.463 222.422 491.463 Z M 222.422 171.463 Z" style="fill: rgb(130, 130, 130);" transform="matrix(1, 0, 0, 1, 2.842170943040401e-14, 0)"/>
</svg>